<svg xmlns="http://www.w3.org/2000/svg" width="18" height="18" viewBox="0 0 18 18" fill="none" class="injected-svg" data-src="/ssr/static/icons//general/sun.svg?type=svg" xmlns:xlink="http://www.w3.org/1999/xlink" role="img">
<g id="Group 237662">
<path id="Vector-217" d="M9.0013 13.3337C11.3945 13.3337 13.3346 11.3936 13.3346 9.00033C13.3346 6.60709 11.3945 4.66699 9.0013 4.66699C6.60807 4.66699 4.66797 6.60709 4.66797 9.00033C4.66797 11.3936 6.60807 13.3337 9.0013 13.3337Z" stroke="#2B44E7" stroke-width="1.5" stroke-linecap="round" stroke-linejoin="round"></path>
<path id="Vector_2-218" d="M14.3795 14.3786L14.2816 14.2806M14.2816 3.72001L14.3795 3.62208L14.2816 3.72001ZM3.62306 14.3786L3.72098 14.2806L3.62306 14.3786ZM9.0013 1.52803V1.46777V1.52803ZM9.0013 16.5329V16.4726V16.5329ZM1.52901 9.00033H1.46875H1.52901ZM16.5339 9.00033H16.4736H16.5339ZM3.72098 3.72001L3.62306 3.62208L3.72098 3.72001Z" stroke="#2B44E7" stroke-width="2" stroke-linecap="round" stroke-linejoin="round"></path>
</g>
</svg>